<?xml version="1.0" encoding="utf-8"?>
<!-- Generator: Adobe Illustrator 19.2.1, SVG Export Plug-In . SVG Version: 6.00 Build 0)  -->
<svg version="1.1" id="Layer_1" xmlns:sketch="http://www.bohemiancoding.com/sketch/ns"
	 xmlns="http://www.w3.org/2000/svg" xmlns:xlink="http://www.w3.org/1999/xlink" x="0px" y="0px" viewBox="0 0 234 211.2"
	 style="enable-background:new 0 0 234 211.2;" xml:space="preserve">
<style type="text/css">
	.st0{fill:#FFFFFF;}
</style>
<g sketch:type="MSPage">
	<g transform="translate(-2348.000000, -223.000000)" sketch:type="MSArtboardGroup">
		<path sketch:type="MSShapeGroup" class="st0" d="M2582,239.7c0-9.2-7.5-16.7-16.7-16.7h-200.5c-9.2,0-16.7,7.5-16.7,16.7v135.5
			c0,9.2,7.5,16.7,16.7,16.7h200.5c9.2,0,16.7-7.5,16.7-16.7V239.7z M2565.3,235.6c2,0,3.6,1.4,4,3.2L2465,308.8l-104.3-70.1
			c0.4-1.8,2.1-3.2,4-3.2H2565.3z M2360.6,254.2l100.7,67.5c1.1,0.8,2.4,1.2,3.7,1.2c1.3,0,2.6-0.4,3.7-1.2l100.7-67.5v121
			c0,2.3-1.9,4.1-4.1,4.1h-200.5c-2.3,0-4.1-1.9-4.1-4.1V254.2z"/>
	</g>
</g>
</svg>
