<?xml version="1.0" encoding="utf-8"?>
<!-- Generator: Adobe Illustrator 19.2.1, SVG Export Plug-In . SVG Version: 6.00 Build 0)  -->
<svg version="1.1" id="Layer_1" xmlns:sketch="http://www.bohemiancoding.com/sketch/ns"
	 xmlns="http://www.w3.org/2000/svg" xmlns:xlink="http://www.w3.org/1999/xlink" x="0px" y="0px" viewBox="0 0 48 48"
	 style="enable-background:new 0 0 48 48;" xml:space="preserve">
<style type="text/css">
	.st0{fill:#FFFFFF;}
</style>
<title>Instagram-black</title>
<desc>Created with Sketch.</desc>
<g id="Icons" sketch:type="MSPage">
	<g id="Black" transform="translate(-500.000000, -200.000000)" sketch:type="MSArtboardGroup">
		<g id="Line-1" transform="translate(200.000000, 200.000000)" sketch:type="MSLayerGroup">
			<path id="Instagram" sketch:type="MSShapeGroup" class="st0" d="M342,43.5h-36c-0.8,0-1.5-0.7-1.5-1.5V19.5h6
				c-0.8,1.1-1,3.2-1,4.6c0,8,6.6,14.6,14.6,14.6c8.1,0,14.6-6.5,14.6-14.6c0-1.3-0.2-3.4-1.2-4.6h6V42
				C343.5,42.8,342.8,43.5,342,43.5 M324.1,14.8c5.1,0,9.2,4.1,9.2,9.2c0,5.1-4.1,9.2-9.2,9.2c-5.1,0-9.2-4.1-9.2-9.2
				C314.8,19,319,14.8,324.1,14.8 M336,6h4.5c0.8,0,1.5,0.7,1.5,1.5V12c0,0.8-0.7,1.5-1.5,1.5H336c-0.8,0-1.5-0.7-1.5-1.5V7.5
				C334.5,6.7,335.2,6,336,6 M342.3,0h-36.6c-3.2,0-5.7,2.5-5.7,5.7v36.6c0,3.1,2.6,5.7,5.7,5.7h36.6c3.2,0,5.7-2.5,5.7-5.7V5.7
				C348,2.5,345.4,0,342.3,0"/>
		</g>
	</g>
</g>
</svg>
